<?xml version="1.0" encoding="UTF-8"?><svg id="Layer_1" xmlns="http://www.w3.org/2000/svg" viewBox="0 0 800 800"><defs><style>.cls-1{fill-rule:evenodd;stroke:#000;stroke-miterlimit:26.04;stroke-width:6.51px;}</style></defs><g id="SVGRepo_iconCarrier"><path class="cls-1" d="M676.69,414.45c35.09,0,63.54,28.45,63.54,63.54s-28.45,63.54-63.54,63.54-63.54-28.45-63.54-63.54,28.45-63.54,63.54-63.54h0Zm-526.95,33.2v22.85h22.85c-2.73-11.2-11.59-20.12-22.85-22.85h0Zm22.92,37.76h-22.92v22.85c11.26-2.67,20.12-11.59,22.92-22.85h0Zm-37.83,22.92v-22.85h-22.85c2.73,11.2,11.65,20.05,22.85,22.85h0Zm-22.85-37.76h22.85v-22.85c-11.2,2.67-20.12,11.59-22.85,22.85h0Zm572.2-22.92v22.85h22.85c-2.73-11.2-11.59-20.12-22.85-22.85h0Zm22.85,37.76h-22.85v22.85c11.26-2.67,20.12-11.59,22.85-22.85h0Zm-37.76,22.92v-22.85h-22.85c2.73,11.2,11.59,20.05,22.85,22.85h0Zm-22.92-37.76h22.85v-22.85c-11.2,2.67-20.05,11.59-22.85,22.85h0Zm-325.46-128.91c-10.03-2.28-19.99-2.28-30.01-1.82,78.45-41.21,109.24-67.97,201.11-62.57l-12.63,83.79-151.24,5.73c1.37-3.97,2.15-6.12,2.41-10.09,.72-11.33,.59-12.7-9.64-15.04h0Zm194.21-62.89l-16.41,81.18,157.1-6.38c16.15-.65,18.95-7.75,9.18-21.35-4.43-6.18-9.38-12.3-15.04-18.36-40.63-43.36-81.05-34.38-134.83-35.09h0ZM2.99,436H7.81c2.99-13.28,8.92-25.26,17.64-36,19.14-23.83,27.86-20.83,56.32-25.98l159.24-30.01c35.35-25.13,77.99-47.53,130.01-66.41,48.24-17.58,82.29-19.27,133.92-19.21,29.56,.07,59.51,1.82,89.91,5.47,15.43,.98,30.53,3.06,45.38,6.05,17.77,3.58,35.22,8.53,52.34,14.39l63.8,36.85c18.82,10.87,22.85,23.57,25.26,44.34l8.98,76.69h9.31v42.38c-1.3,14.26-6.9,16.41-18.75,16.41h-15.43c5.99-134.05-182.62-156.97-178.52,10.61H226.3c24.28-115.56-92.25-155.66-149.48-89.58-17.38,20.12-23.44,47.59-21.87,80.08H13.22c-3.32-1.56-5.92-3.71-7.88-6.38C-1.5,486.39,0,458.33,.52,442.12c.07-4.36-1.3-6.12,2.47-6.12h0Zm139.32-21.55c35.09,0,63.54,28.45,63.54,63.54s-28.45,63.54-63.54,63.54-63.54-28.45-63.54-63.54,28.45-63.54,63.54-63.54h0Z"/></g></svg>