<?xml version="1.0" encoding="UTF-8"?><svg id="Layer_1" xmlns="http://www.w3.org/2000/svg" viewBox="0 0 800 800"><g id="SVGRepo_iconCarrier"><path d="M394.13,662.39c-3.45,0-6.31-2.79-6.31-6.25s2.73-6.25,6.17-6.25h.13c3.44,0,6.25,2.79,6.25,6.25s-2.81,6.25-6.25,6.25h0Zm43.73-37.49c-3.45,0-6.31-2.79-6.31-6.25s2.73-6.25,6.17-6.25h.13c3.44,0,6.25,2.79,6.25,6.25,0,3.45-2.8,6.25-6.25,6.25Zm0-62.47c-3.45,0-6.31-2.8-6.31-6.25s2.73-6.25,6.17-6.25h.13c3.44,0,6.25,2.79,6.25,6.25s-2.81,6.25-6.25,6.25Zm27.04,46.85c-3.45,0-6.31-2.79-6.31-6.25s2.73-6.25,6.17-6.25h.13c3.45,0,6.25,2.8,6.25,6.25,0,3.45-2.8,6.25-6.25,6.25Zm-54.1-31.24c-3.45,0-6.31-2.79-6.31-6.25s2.73-6.25,6.17-6.25h.13c3.45,0,6.25,2.8,6.25,6.25,0,3.45-2.8,6.25-6.25,6.25Zm54.1,0c-3.45,0-6.31-2.79-6.31-6.25s2.73-6.25,6.17-6.25h.13c3.45,0,6.25,2.8,6.25,6.25,0,3.45-2.8,6.25-6.25,6.25Zm-54.1,31.24c-3.45,0-6.31-2.79-6.31-6.25s2.73-6.25,6.17-6.25h.13c3.45,0,6.25,2.8,6.25,6.25,0,3.45-2.8,6.25-6.25,6.25Zm-266.94,165.55c-3.45,0-6.24-2.79-6.25-6.24h0V368.77c0-3.45,2.79-6.25,6.25-6.25s6.25,2.8,6.25,6.25v399.83c0,3.45-2.79,6.24-6.24,6.25h0Zm587.25,0c-3.45,0-6.24-2.79-6.25-6.24h0V368.77c0-3.45,2.79-6.25,6.24-6.25h0c3.45,0,6.25,2.79,6.25,6.24h0v399.83c0,3.45-2.79,6.25-6.24,6.25h0Z"/><path d="M143.86,375.02c-2.35,0-4.5-1.32-5.56-3.4-1.57-3.07-.36-6.83,2.71-8.4,0,0,0,0,0,0L434.64,213.27c3.07-1.55,6.82-.34,8.41,2.72,1.57,3.07,.36,6.83-2.71,8.4,0,0,0,0-.01,0L146.7,374.33c-.88,.45-1.85,.69-2.84,.68h0Z"/><path d="M731.11,375.02c-.99,0-1.96-.23-2.84-.68L434.64,224.4c-3.07-1.57-4.29-5.33-2.73-8.4,0,0,0,0,0,0,1.58-3.06,5.33-4.28,8.41-2.72l293.63,149.94c3.07,1.57,4.29,5.33,2.72,8.4,0,0,0,0,0,0-1.07,2.09-3.22,3.4-5.57,3.4Zm-637.23,6.25c-2.32,0-4.45-1.28-5.53-3.33-1.61-3.05-.44-6.83,2.61-8.44L434.57,188.32c3.05-1.59,6.82-.43,8.44,2.61,1.61,3.05,.44,6.83-2.61,8.44L96.79,380.55c-.9,.47-1.9,.72-2.92,.72Z"/><path d="M781.09,381.27c-1.02,0-2.02-.25-2.91-.72L434.57,199.37c-3.05-1.61-4.22-5.39-2.61-8.44,1.62-3.04,5.39-4.21,8.44-2.61l343.61,181.18c3.45,0,6.25,2.79,6.25,6.25,0,3.45-2.79,6.25-6.25,6.25-1.02,0-2.02-.25-2.92-.72h0ZM212.58,300.05c-3.45,0-6.25-2.79-6.25-6.24h0v-62.48c0-3.45,2.79-6.25,6.25-6.25s6.25,2.8,6.25,6.25v62.47c0,3.45-2.79,6.25-6.24,6.25h0Zm37.49-24.99c-3.45,0-6.25-2.79-6.25-6.24h0v-37.49c0-3.45,2.8-6.25,6.25-6.25s6.25,2.8,6.25,6.25v37.48c0,3.45-2.79,6.25-6.24,6.25h0Z"/><path d="M250.06,237.58h-37.48c-3.45,0-6.25-2.79-6.25-6.25s2.79-6.25,6.25-6.25h37.48c3.45,0,6.25,2.8,6.25,6.25s-2.79,6.25-6.25,6.25ZM768.59,799.83H106.37c-3.45,0-6.25-2.79-6.25-6.25s2.79-6.25,6.25-6.25H768.59c3.45,0,6.25,2.79,6.25,6.25s-2.8,6.25-6.25,6.25Zm-237.4-24.99h-187.42c-3.45,0-6.25-2.79-6.25-6.25s2.79-6.25,6.25-6.25h187.42c3.45,0,6.25,2.8,6.25,6.25s-2.8,6.25-6.25,6.25Zm-12.5-24.99h-162.43c-3.45,0-6.25-2.79-6.25-6.25s2.8-6.25,6.25-6.25h162.43c3.45,0,6.25,2.79,6.25,6.25s-2.79,6.25-6.25,6.25Z"/><path d="M368.76,749.85c-3.45,0-6.24-2.79-6.25-6.24h0v-224.91c0-3.45,2.79-6.25,6.25-6.25s6.25,2.79,6.25,6.25v224.9c0,3.45-2.79,6.25-6.24,6.25h0Z"/><path d="M506.2,524.95h-137.44c-3.45,0-6.24-2.79-6.25-6.24h0c0-3.46,2.79-6.26,6.24-6.26h137.45c3.45,0,6.25,2.79,6.25,6.24h0c0,3.46-2.79,6.25-6.24,6.25h0Z"/><path d="M506.2,749.85c-3.45,0-6.24-2.79-6.25-6.24h0v-224.91c0-3.45,2.79-6.25,6.25-6.25s6.25,2.79,6.25,6.25v224.9c0,3.45-2.79,6.24-6.24,6.25h0Zm174.93-99.96h-124.95c-3.45,0-6.25-2.79-6.25-6.24h0v-124.95c0-3.45,2.79-6.25,6.24-6.25h124.96c3.45,0,6.25,2.79,6.25,6.24h0v124.95c0,3.45-2.79,6.25-6.24,6.25h0Zm-118.7-12.5h112.45v-112.45h-112.45v112.45Zm114.42-235.25c-8.69,0-19.17-1.6-28.65-7.41-10.58-6.47-17.85-16.8-21.7-30.79-7.77,1.72-21.56,3.81-36.84,1.62-20.78-2.97-48.04-14.51-62.55-52.14-20.52,3-54.36-2.71-64.46-43.12-.83-3.35,1.2-6.74,4.55-7.58,3.28-.82,6.74,1.2,7.58,4.55,10.84,43.39,53.09,33.38,54.9,32.93,3.16-.73,6.42,1,7.44,4.09,9.55,28.66,27.82,45.11,54.3,48.89,20.21,2.9,37.58-2.81,37.75-2.87,1.72-.56,3.59-.36,5.15,.55,1.55,.92,2.63,2.46,2.96,4.23,2.55,13.68,8.38,23.4,17.36,28.92,15.86,9.77,37,3.78,37.2,3.72,3.3-.98,6.77,.9,7.75,4.2,0,0,0,.02,0,.03,.96,3.3-.92,6.76-4.21,7.75-.59,.17-8.31,2.41-18.56,2.41h0Z"/><path d="M649.89,406.25c-3.45,0-6.25-2.79-6.25-6.24,0-1.66,.66-3.25,1.83-4.42l7.66-7.66c2.44-2.44,6.39-2.44,8.83,0h0c2.44,2.44,2.44,6.39,0,8.83,0,0,0,0,0,0l-7.66,7.66c-1.17,1.17-2.76,1.83-4.42,1.83h0Zm-162.43-87.46c-3.45,0-6.25-2.79-6.25-6.24,0-1.66,.66-3.25,1.83-4.43l8.99-8.99c2.44-2.44,6.39-2.44,8.83,0h0c2.44,2.44,2.44,6.39,0,8.83,0,0,0,0,0,0l-8.99,8.99c-1.17,1.17-2.76,1.83-4.42,1.83Zm106.2,56.49c-3.45,0-6.24-2.79-6.25-6.24h0v-9.26c0-3.45,2.79-6.25,6.25-6.25s6.25,2.79,6.25,6.25v9.25c0,3.45-2.79,6.24-6.24,6.25h0Zm-56.23-31.5c-1.66,0-3.25-.66-4.42-1.83-2.44-2.44-2.44-6.39,0-8.83,0,0,0,0,0,0l6.25-6.25c2.43-2.45,6.39-2.46,8.83-.03s2.46,6.39,.03,8.83c0,0-.02,.02-.03,.03l-6.25,6.25c-1.17,1.17-2.76,1.83-4.42,1.83h0Zm-339.32,58.37c-10.25,0-17.97-2.23-18.56-2.41-3.29-.99-5.17-4.45-4.21-7.75,.96-3.3,4.42-5.2,7.72-4.24,.01,0,.03,0,.04,.01,.2,.06,21.33,6.05,37.2-3.72,8.98-5.52,14.81-15.24,17.36-28.92,.34-1.77,1.42-3.31,2.97-4.23,1.55-.91,3.43-1.11,5.14-.55,2.79,.93,69.39,21.99,92.06-46.03,1.02-3.09,4.21-4.86,7.43-4.09,1.78,.46,44.12,10.24,54.91-32.93,.83-3.35,4.18-5.36,7.58-4.55,3.35,.84,5.38,4.23,4.55,7.58-10.12,40.4-43.91,46.11-64.46,43.12-14.51,37.63-41.77,49.17-62.55,52.14-15.29,2.18-29.08,.1-36.84-1.62-3.84,13.98-11.12,24.32-21.7,30.79-9.48,5.81-19.96,7.41-28.65,7.41h0Z"/><path d="M225.07,406.25c-1.66,0-3.25-.66-4.42-1.83l-7.66-7.66c-2.44-2.44-2.44-6.39,0-8.83s6.39-2.44,8.83,0l7.66,7.66c2.44,2.44,2.45,6.39,0,8.83-1.17,1.18-2.77,1.83-4.43,1.83h0Zm162.43-87.46c-1.66,0-3.25-.66-4.42-1.83l-8.99-8.99c-2.44-2.44-2.44-6.39,0-8.83h0c2.44-2.44,6.39-2.44,8.83,0h0s8.99,9,8.99,9c2.44,2.44,2.45,6.39,0,8.83-1.17,1.18-2.77,1.83-4.43,1.83Zm-106.2,56.49c-3.45,0-6.24-2.79-6.25-6.24h0v-9.26c0-3.45,2.79-6.25,6.25-6.25s6.25,2.79,6.25,6.25v9.25c0,3.45-2.79,6.25-6.24,6.25h0Zm56.23-31.5c-1.66,0-3.25-.66-4.42-1.83l-6.25-6.25c-2.44-2.44-2.44-6.39,0-8.83h0c2.44-2.44,6.39-2.44,8.83,0h0s6.25,6.25,6.25,6.25c2.44,2.44,2.44,6.39,0,8.83h0c-1.17,1.18-2.76,1.84-4.42,1.83h0Z"/><path d="M437.48,175.1c-3.45,0-6.24-2.79-6.25-6.24h0v-25c0-3.45,2.79-6.25,6.25-6.25s6.25,2.8,6.25,6.25v24.99c0,3.45-2.79,6.25-6.24,6.25h0Z"/><path d="M481.21,150.11h-87.46c-3.45,0-6.25-2.79-6.25-6.25s2.79-6.25,6.25-6.25h87.46c3.45,0,6.25,2.8,6.25,6.25s-2.79,6.25-6.25,6.25h0Z"/><path d="M481.21,150.11c-2.37,0-4.53-1.34-5.59-3.45l-24.99-49.98c-1.54-3.09-.29-6.84,2.79-8.38,3.08-1.54,6.83-.3,8.38,2.78h0s24.99,49.99,24.99,49.99c1.54,3.09,.29,6.84-2.8,8.38-.87,.43-1.82,.66-2.79,.66h0Zm-87.46,0c-3.45,0-6.25-2.81-6.24-6.26,0-.96,.23-1.92,.66-2.78l24.99-49.98c1.55-3.07,5.31-4.33,8.38-2.79,3.08,1.55,4.33,5.3,2.79,8.38l-24.99,49.98c-1.06,2.12-3.22,3.45-5.59,3.45Zm74.97-74.97h-62.47c-3.45,0-6.25-2.8-6.25-6.25s2.79-6.25,6.25-6.25h62.47c3.45,0,6.25,2.8,6.25,6.25s-2.79,6.25-6.25,6.25Z"/><path d="M468.72,75.14c-2.37,0-4.53-1.34-5.59-3.45l-31.24-62.47c-1.54-3.09-.29-6.84,2.79-8.38,3.08-1.54,6.83-.3,8.38,2.78,0,0,0,0,0,.01l31.24,62.47c1.54,3.09,.29,6.84-2.79,8.38-.87,.43-1.83,.66-2.8,.66Z"/><path d="M406.25,73.19c-.96,0-1.95-.22-2.87-.7-3.06-1.59-4.26-5.35-2.68-8.42L431.93,3.55c1.59-3.06,5.37-4.28,8.42-2.68,3.07,1.58,4.27,5.35,2.69,8.42l-31.24,60.52c-1.07,2.08-3.21,3.38-5.55,3.38h0Z"/><path d="M437.48,637.4c-27.56,0-49.98-22.42-49.98-49.98s22.41-49.98,49.98-49.98,49.98,22.42,49.98,49.98c0,27.56-22.41,49.98-49.98,49.98Zm0-87.46c-20.67,0-37.48,16.81-37.48,37.48s16.81,37.48,37.48,37.48,37.48-16.81,37.48-37.48c0-20.67-16.81-37.48-37.48-37.48Z"/><path d="M437.48,612.41c-13.78,0-24.99-11.21-24.99-24.99s11.21-24.99,24.99-24.99,24.99,11.21,24.99,24.99-11.21,24.99-24.99,24.99Zm0-37.48c-6.89,0-12.49,5.6-12.49,12.5s5.6,12.49,12.49,12.49,12.5-5.6,12.5-12.49-5.6-12.5-12.5-12.5Z"/><path d="M618.65,624.91c-3.45,0-6.24-2.79-6.25-6.24h0v-74.98c0-3.45,2.79-6.25,6.25-6.25s6.25,2.8,6.25,6.25v74.97c0,3.45-2.79,6.25-6.24,6.25h0Z"/><path d="M656.14,587.42h-74.97c-3.45,0-6.25-2.79-6.25-6.24h0c0-3.46,2.79-6.25,6.24-6.26h74.97c3.45,0,6.24,2.79,6.25,6.24h0c0,3.46-2.79,6.25-6.23,6.26h-.01Z"/><path d="M318.78,649.9h-124.95c-3.45,0-6.25-2.79-6.25-6.24h0v-124.95c0-3.45,2.79-6.25,6.24-6.25h124.96c3.45,0,6.25,2.79,6.25,6.24h0v124.95c0,3.45-2.79,6.25-6.24,6.25h0Zm-118.7-12.5h112.45v-112.45h-112.45v112.45Z"/><path d="M256.31,624.91c-3.45,0-6.24-2.79-6.25-6.24h0v-74.98c0-3.45,2.79-6.25,6.25-6.25s6.25,2.8,6.25,6.25v74.97c0,3.45-2.79,6.24-6.24,6.25h0Z"/><path d="M293.79,587.42h-74.97c-3.45,0-6.25-2.79-6.25-6.24h0c0-3.45,2.79-6.25,6.24-6.25h74.98c3.45,0,6.24,2.79,6.25,6.24h0c0,3.46-2.79,6.26-6.24,6.26h0Z"/><path d="M437.48,474.97c-34.45,0-62.47-28.03-62.47-62.47s28.03-62.47,62.47-62.47,62.47,28.03,62.47,62.47c0,34.45-28.03,62.47-62.47,62.47Zm0-112.45c-27.56,0-49.98,22.42-49.98,49.97s22.41,49.98,49.98,49.98,49.98-22.42,49.98-49.98c0-27.56-22.41-49.97-49.98-49.97Z"/><path d="M681.13,499.96h-124.95c-3.45,0-6.25-2.79-6.25-6.24h0c0-3.46,2.79-6.25,6.24-6.25h124.95c3.45,0,6.25,2.79,6.25,6.24h0c0,3.45-2.79,6.25-6.24,6.25h0Z"/><path d="M568.68,499.96c-3.45,0-6.25-2.79-6.25-6.24h0v-6.25c0-3.45,2.79-6.25,6.25-6.25s6.25,2.79,6.25,6.25v6.25c0,3.45-2.79,6.25-6.24,6.25h0Zm24.99,0c-3.45,0-6.25-2.79-6.25-6.24h0v-6.25c0-3.45,2.79-6.25,6.25-6.25s6.25,2.79,6.25,6.25v6.25c0,3.45-2.79,6.25-6.24,6.25h0Zm24.99,0c-3.45,0-6.25-2.79-6.25-6.24h0v-6.25c0-3.45,2.79-6.25,6.25-6.25s6.25,2.79,6.25,6.25v6.25c0,3.45-2.79,6.25-6.24,6.25h0Zm24.99,0c-3.45,0-6.25-2.79-6.25-6.24h0v-6.25c0-3.45,2.79-6.25,6.24-6.25h0c3.45,0,6.25,2.79,6.25,6.24h0v6.25c0,3.45-2.79,6.25-6.24,6.25h0Zm24.99,0c-3.45,0-6.25-2.79-6.25-6.24h0v-6.26c0-3.45,2.79-6.25,6.24-6.25h0c3.45,0,6.25,2.79,6.25,6.24h0v6.25c0,3.45-2.79,6.25-6.24,6.25h0Z"/><path d="M681.13,674.89h-124.95c-3.45,0-6.25-2.79-6.25-6.25s2.8-6.25,6.25-6.25h124.95c3.45,0,6.25,2.79,6.25,6.25s-2.79,6.25-6.25,6.25Z"/><path d="M668.64,681.13c-3.45,0-6.25-2.79-6.25-6.24h0v-6.26c0-3.45,2.79-6.25,6.24-6.25h0c3.45,0,6.25,2.79,6.25,6.24h0v6.25c0,3.45-2.79,6.25-6.24,6.25h0Zm-24.99,0c-3.45,0-6.25-2.79-6.25-6.24h0v-6.25c0-3.45,2.79-6.25,6.24-6.25h0c3.45,0,6.25,2.79,6.25,6.24h0v6.25c0,3.45-2.79,6.25-6.24,6.25h0Zm-24.99,0c-3.45,0-6.25-2.79-6.25-6.24h0v-6.25c0-3.45,2.79-6.25,6.25-6.25s6.25,2.79,6.25,6.25v6.25c0,3.45-2.79,6.25-6.24,6.25h0Zm-24.99,0c-3.45,0-6.25-2.79-6.25-6.24h0v-6.25c0-3.45,2.79-6.25,6.25-6.25s6.25,2.79,6.25,6.25v6.25c0,3.45-2.79,6.25-6.24,6.25h0Zm-24.99,0c-3.45,0-6.25-2.79-6.25-6.24h0v-6.25c0-3.45,2.79-6.25,6.25-6.25s6.25,2.79,6.25,6.25v6.25c0,3.45-2.79,6.25-6.24,6.25h0Z"/><path d="M318.78,499.96h-124.95c-3.45,0-6.25-2.79-6.25-6.24h0c0-3.46,2.79-6.25,6.24-6.25h124.95c3.45,0,6.25,2.79,6.25,6.24h0c0,3.45-2.79,6.25-6.24,6.25h0Z"/><path d="M206.33,499.96c-3.45,0-6.25-2.79-6.25-6.24h0v-6.25c0-3.45,2.8-6.25,6.25-6.25s6.25,2.79,6.25,6.25v6.25c0,3.45-2.79,6.25-6.24,6.25h0Zm24.99,0c-3.45,0-6.25-2.79-6.25-6.24h0v-6.25c0-3.45,2.79-6.25,6.25-6.25s6.25,2.79,6.25,6.25v6.25c0,3.45-2.79,6.25-6.24,6.25h0Zm24.99,0c-3.45,0-6.25-2.79-6.25-6.24h0v-6.25c0-3.45,2.79-6.25,6.25-6.25s6.25,2.79,6.25,6.25v6.25c0,3.45-2.79,6.25-6.24,6.25h0Zm24.99,0c-3.45,0-6.25-2.79-6.25-6.24h0v-6.25c0-3.45,2.79-6.25,6.25-6.25s6.25,2.79,6.25,6.25v6.25c0,3.45-2.79,6.25-6.24,6.25h0Zm24.99,0c-3.45,0-6.25-2.79-6.25-6.24h0v-6.25c0-3.45,2.79-6.25,6.25-6.25s6.25,2.79,6.25,6.25v6.25c0,3.45-2.79,6.25-6.24,6.25h0Z"/><path d="M318.78,674.89h-124.95c-3.45,0-6.25-2.79-6.25-6.25s2.79-6.25,6.25-6.25h124.95c3.45,0,6.25,2.79,6.25,6.25s-2.79,6.25-6.25,6.25Z"/><path d="M306.29,681.13c-3.45,0-6.25-2.79-6.25-6.24h0v-6.25c0-3.45,2.79-6.25,6.25-6.25s6.25,2.79,6.25,6.25v6.25c0,3.45-2.79,6.25-6.24,6.25h0Zm-24.99,0c-3.45,0-6.25-2.79-6.25-6.24h0v-6.25c0-3.45,2.79-6.25,6.25-6.25s6.25,2.79,6.25,6.25v6.25c0,3.45-2.79,6.25-6.24,6.25h0Zm-24.99,0c-3.45,0-6.25-2.79-6.25-6.24h0v-6.25c0-3.45,2.79-6.25,6.25-6.25s6.25,2.79,6.25,6.25v6.25c0,3.45-2.79,6.25-6.24,6.25h0Zm-24.99,0c-3.45,0-6.25-2.79-6.25-6.24h0v-6.25c0-3.45,2.79-6.25,6.25-6.25s6.25,2.79,6.25,6.25v6.25c0,3.45-2.79,6.25-6.24,6.25h0Zm-24.99,0c-3.45,0-6.25-2.79-6.25-6.24h0v-6.25c0-3.45,2.8-6.25,6.25-6.25s6.25,2.79,6.25,6.25v6.25c0,3.45-2.79,6.25-6.24,6.25h0Z"/><path d="M437.48,449.98c-3.45,0-6.24-2.79-6.25-6.24h0v-62.48c0-3.45,2.79-6.25,6.25-6.25s6.25,2.8,6.25,6.25v62.47c0,3.45-2.79,6.25-6.24,6.25h0Z"/><path d="M468.72,418.74h-62.47c-3.45,0-6.24-2.79-6.25-6.24h0c0-3.46,2.79-6.25,6.24-6.25h62.48c3.45,0,6.24,2.8,6.24,6.24s-2.8,6.24-6.24,6.24h0Z"/><path d="M281.3,187.6H131.36c-3.45,0-6.25-2.8-6.25-6.25s2.8-6.25,6.25-6.25h149.94c3.45,0,6.25,2.8,6.25,6.25s-2.79,6.25-6.25,6.25h0Z"/><path d="M243.81,212.59h-24.99c-3.45,0-6.25-2.79-6.25-6.24h0c0-3.46,2.79-6.25,6.24-6.25h25c3.45,0,6.25,2.79,6.25,6.24h0c0,3.46-2.79,6.25-6.24,6.25h0Z"/><path d="M243.81,162.61H18.91c-3.45,0-6.25-2.79-6.25-6.24,0,0,0,0,0,0,0-3.45,2.79-6.25,6.24-6.25H243.81c3.45,0,6.25,2.79,6.25,6.24h0c0,3.46-2.79,6.25-6.24,6.26h0Z"/></g></svg>