<?xml version="1.0" encoding="UTF-8"?><svg id="_2" xmlns="http://www.w3.org/2000/svg" viewBox="0 0 800 800"><g id="SVGRepo_iconCarrier"><g><path d="M592.86,334.37c-23.03-23.09-50.27-42.08-80.43-55.73l127.64-165.53L518.38,0h-236.76l-121.68,113.04,127.63,165.59c-30.22,13.65-57.43,32.64-80.49,55.73-49.27,49.27-79.89,117.57-79.89,192.84s30.61,143.55,79.89,192.86c49.35,49.35,117.63,79.93,192.92,79.93s143.57-30.58,192.86-79.93c49.33-49.3,79.95-117.57,79.95-192.86,0-75.27-30.61-143.57-79.95-192.84Zm-122.98-70.89l-24.2,31.37,12.43-34.19,24.83-67.99,95.51-70.01-108.57,140.82Zm-14.64-66.28l-21.58,59.3-15.12,41.54-5.35,14.6h-28.07l-5.28-14.47-15.14-41.49-21.66-59.49h112.19Zm-114.02-24.5l14.35-57h87.18l14.35,57h-115.88Zm178.64-112.74l45.24,42.04-84.9,62.29-14.17-56.64,53.83-47.7Zm-221.37-17.05h202.98l.28,.32-54.12,47.93h-95.25l-54.12-48,.24-.25Zm-18.34,17.05l52.42,46.41v.06l-14.53,57.79-83.92-61.49,46.03-42.77Zm-56.41,65.6l91.55,67.12,24.87,68.36,10.74,29.47-20.85-27.02L223.74,125.55Zm338.82,564.22c-41.67,41.62-99,67.31-162.57,67.31s-120.89-25.69-162.57-67.31c-41.65-41.67-67.31-99-67.31-162.57s25.66-120.89,67.31-162.57c21.88-21.85,48.06-39.31,77.17-50.97l22.83,29.6h125.14l22.84-29.6c29.1,11.66,55.28,29.12,77.16,50.97,41.65,41.68,67.32,98.99,67.32,162.57s-25.67,120.89-67.32,162.57Z"/><path d="M400,365.46c-44.61,0-85.16,18.13-114.37,47.37-29.24,29.23-47.38,69.75-47.38,114.37s18.13,85.15,47.38,114.36c29.21,29.24,69.76,47.39,114.37,47.39s85.16-18.15,114.37-47.39c29.23-29.21,47.38-69.78,47.38-114.36s-18.15-85.15-47.38-114.38c-29.21-29.24-69.76-47.37-114.37-47.37Zm88.35,250.11c-22.65,22.63-53.77,36.59-88.35,36.59s-65.68-13.95-88.35-36.59c-22.66-22.69-36.6-53.8-36.6-88.36s13.94-65.68,36.6-88.36c22.67-22.65,53.79-36.59,88.35-36.6,34.57,.02,65.7,13.95,88.35,36.6,22.65,22.68,36.6,53.78,36.6,88.36,0,34.56-13.95,65.68-36.6,88.36Z"/></g></g></svg>